<svg width="986" height="261" viewBox="0 0 986 261" fill="none" xmlns="http://www.w3.org/2000/svg">
<g clip-path="url(#clip0_52_2390)">
<mask id="mask0_52_2390" style="mask-type:luminance" maskUnits="userSpaceOnUse" x="0" y="0" width="1000" height="261">
<path d="M999.06 0H0V261H999.06V0Z" fill="white"/>
</mask>
<g mask="url(#mask0_52_2390)">
<path d="M103.577 8.32226V79.0615V87.3838C160.44 104.028 188.594 155.348 195.562 178.929H262.459C269.149 178.929 270.821 173.381 270.821 170.607V87.3838C270.821 80.7259 265.247 79.0615 262.459 79.0615H195.562V8.32226C195.562 1.66445 189.987 0 187.199 0H111.939C105.25 0 103.577 5.54818 103.577 8.32226Z" fill="#0088F5"/>
<path d="M192.443 187.755C147.161 75.1134 45.682 74.7422 2.22374 83.1135C21.0318 118.274 69.9046 138.224 91.9899 143.805C30.436 130.411 5.07347 99.1576 0.0864495 85.2054C-3.33321 170.593 95.552 184.963 145.422 181.476C162.521 179.802 175.344 191.939 179.618 198.218V248.446H111.226V194.032C107.806 187.336 101.251 185.662 98.4017 185.662V256.818C98.4017 260.166 104.101 261.002 106.951 261.002H183.893C187.312 261.002 191.018 258.212 192.443 256.818V187.755Z" fill="url(#paint0_linear_52_2390)"/>
<path d="M361.074 236.143H357.465V209.943H341.33V236.143H337.721V206.563H361.074V236.143ZM383.271 230.945L384.884 233.396C383.243 235.509 380.794 236.565 377.538 236.565C374.481 236.565 372.005 235.664 370.108 233.861C368.24 232.058 367.306 229.649 367.306 226.635C367.306 223.846 368.226 221.493 370.065 219.578C371.906 217.663 374.213 216.705 376.986 216.705C380.327 216.705 382.832 217.536 384.502 219.198L382.931 221.86C381.46 220.536 379.634 219.874 377.453 219.874C375.67 219.874 374.128 220.521 372.825 221.818C371.552 223.085 370.915 224.691 370.915 226.635C370.915 228.692 371.567 230.325 372.868 231.537C374.199 232.776 375.84 233.396 377.793 233.396C380.001 233.396 381.827 232.58 383.271 230.945ZM403.749 221.987L392.709 236.143H389.312V217.127H392.709V231.283L403.749 217.127H407.146V236.143H403.749V221.987ZM426.355 217.127H430.304L423.468 226.297L430.728 236.143H426.567L420.963 228.452L415.273 236.143H411.324L418.542 226.466L411.749 217.127H415.91L421.09 224.311L426.355 217.127ZM449.277 221.987L438.238 236.143H434.841V217.127H438.238V231.283L449.277 217.127H452.674V236.143H449.277V221.987ZM459.868 221.142L458.977 218.437C460.872 217.282 462.995 216.705 465.346 216.705C467.921 216.705 469.789 217.338 470.95 218.606C472.111 219.874 472.691 221.831 472.691 224.48V236.143H469.464V233.692C467.963 235.523 465.925 236.439 463.35 236.439C461.594 236.439 460.179 235.918 459.104 234.875C458.028 233.805 457.491 232.368 457.491 230.565C457.491 228.706 458.155 227.24 459.486 226.17C460.816 225.071 462.557 224.522 464.709 224.522C466.718 224.522 468.303 224.931 469.464 225.748C469.464 223.606 469.167 222.071 468.573 221.142C467.978 220.212 466.832 219.747 465.133 219.747C463.406 219.747 461.652 220.212 459.868 221.142ZM464.539 233.396C466.435 233.396 468.077 232.58 469.464 230.945V228.537C468.275 227.691 466.846 227.269 465.176 227.269C464.015 227.269 463.038 227.551 462.246 228.114C461.482 228.65 461.1 229.41 461.1 230.396C461.1 231.326 461.397 232.058 461.991 232.593C462.613 233.129 463.463 233.396 464.539 233.396ZM482.964 220.508H475.958V217.127H493.367V220.508H486.361V236.143H482.964V220.508ZM500.476 244.594H497.08V217.127H500.476V219.367C501.156 218.578 502.09 217.944 503.279 217.465C504.468 216.958 505.699 216.705 506.973 216.705C509.69 216.705 511.827 217.606 513.384 219.409C514.998 221.184 515.805 223.494 515.805 226.339C515.805 229.241 514.884 231.677 513.045 233.65C511.233 235.594 508.841 236.565 505.869 236.565C503.576 236.565 501.778 236.129 500.476 235.255V244.594ZM505.996 219.874C503.731 219.874 501.891 220.748 500.476 222.494V231.917C501.976 232.903 503.675 233.396 505.572 233.396C507.581 233.396 509.181 232.762 510.37 231.495C511.586 230.198 512.195 228.523 512.195 226.466C512.195 224.466 511.643 222.874 510.539 221.691C509.435 220.479 507.921 219.874 505.996 219.874ZM535.109 221.987L524.069 236.143H520.672V217.127H524.069V231.283L535.109 217.127H538.506V236.143H535.109V221.987ZM553.046 217.127H558.99V236.143H555.593V229.804H551.899L547.229 236.143H543.11L548.63 228.959C547.47 228.706 546.493 228.085 545.7 227.1C544.907 226.086 544.511 224.874 544.511 223.466C544.511 221.522 545.219 219.987 546.634 218.86C548.049 217.705 550.187 217.127 553.046 217.127ZM548.12 223.55C548.12 224.451 548.474 225.198 549.182 225.79C549.89 226.353 550.724 226.635 551.687 226.635H555.593V220.296H552.494C551.05 220.296 549.96 220.592 549.224 221.184C548.489 221.775 548.12 222.565 548.12 223.55ZM564.23 233.861C564.23 233.269 564.457 232.749 564.91 232.297C565.392 231.846 565.971 231.621 566.65 231.621C567.245 231.621 567.769 231.846 568.221 232.297C568.675 232.749 568.901 233.269 568.901 233.861C568.901 234.537 568.688 235.115 568.264 235.594C567.839 236.045 567.302 236.27 566.65 236.27C565.971 236.27 565.392 236.045 564.91 235.594C564.457 235.115 564.23 234.537 564.23 233.861ZM606.675 236.143H603.066V222.747H586.719V236.143H583.11V206.563H586.719V219.367H603.066V206.563H606.675V236.143ZM615.195 221.142L614.303 218.437C616.2 217.282 618.323 216.705 620.672 216.705C623.248 216.705 625.117 217.338 626.277 218.606C627.438 219.874 628.018 221.831 628.018 224.48V236.143H624.791V233.692C623.291 235.523 621.253 236.439 618.676 236.439C616.922 236.439 615.507 235.918 614.43 234.875C613.355 233.805 612.817 232.368 612.817 230.565C612.817 228.706 613.483 227.24 614.813 226.17C616.144 225.071 617.885 224.522 620.035 224.522C622.046 224.522 623.631 224.931 624.791 225.748C624.791 223.606 624.493 222.071 623.899 221.142C623.305 220.212 622.158 219.747 620.46 219.747C618.734 219.747 616.978 220.212 615.195 221.142ZM619.865 233.396C621.762 233.396 623.404 232.58 624.791 230.945V228.537C623.602 227.691 622.173 227.269 620.502 227.269C619.342 227.269 618.365 227.551 617.572 228.114C616.808 228.65 616.426 229.41 616.426 230.396C616.426 231.326 616.723 232.058 617.318 232.593C617.941 233.129 618.79 233.396 619.865 233.396ZM637.103 244.594H633.706V217.127H637.103V219.367C637.782 218.578 638.716 217.944 639.905 217.465C641.094 216.958 642.325 216.705 643.599 216.705C646.317 216.705 648.453 217.606 650.011 219.409C651.624 221.184 652.431 223.494 652.431 226.339C652.431 229.241 651.51 231.677 649.671 233.65C647.859 235.594 645.467 236.565 642.495 236.565C640.202 236.565 638.405 236.129 637.103 235.255V244.594ZM642.623 219.874C640.358 219.874 638.518 220.748 637.103 222.494V231.917C638.603 232.903 640.301 233.396 642.198 233.396C644.207 233.396 645.807 232.762 646.996 231.495C648.214 230.198 648.822 228.523 648.822 226.466C648.822 224.466 648.27 222.874 647.166 221.691C646.062 220.479 644.547 219.874 642.623 219.874ZM669.571 217.127H674.029L665.665 226.212L674.836 236.143H670.123L661.504 226.424L669.571 217.127ZM660.697 236.143H657.3V217.127H660.697V236.143ZM678.938 233.776C677.07 231.861 676.136 229.48 676.136 226.635C676.136 223.762 677.07 221.395 678.938 219.536C680.835 217.648 683.298 216.705 686.327 216.705C689.356 216.705 691.804 217.648 693.672 219.536C695.569 221.395 696.517 223.762 696.517 226.635C696.517 229.508 695.569 231.889 693.672 233.776C691.804 235.636 689.356 236.565 686.327 236.565C683.327 236.565 680.864 235.636 678.938 233.776ZM681.613 221.775C680.368 223.015 679.745 224.635 679.745 226.635C679.745 228.635 680.355 230.255 681.571 231.495C682.817 232.762 684.402 233.396 686.327 233.396C688.252 233.396 689.823 232.776 691.04 231.537C692.286 230.269 692.908 228.635 692.908 226.635C692.908 224.691 692.286 223.072 691.04 221.775C689.823 220.508 688.252 219.874 686.327 219.874C684.402 219.874 682.831 220.508 681.613 221.775ZM717.146 236.143H713.749V220.508H707.041L706.828 223.719C706.602 226.339 706.263 228.523 705.809 230.269C705.385 231.988 704.819 233.283 704.111 234.157C703.432 235.002 702.71 235.594 701.946 235.932C701.181 236.241 700.247 236.396 699.143 236.396L698.888 233.1C699.199 233.129 699.525 233.087 699.865 232.974C700.205 232.833 700.573 232.551 700.969 232.128C701.394 231.706 701.762 231.143 702.073 230.438C702.413 229.733 702.71 228.748 702.965 227.48C703.248 226.184 703.432 224.705 703.517 223.043L703.856 217.127H717.146V236.143ZM724.799 233.776C722.931 231.861 721.997 229.48 721.997 226.635C721.997 223.762 722.931 221.395 724.799 219.536C726.696 217.648 729.159 216.705 732.187 216.705C735.215 216.705 737.664 217.648 739.533 219.536C741.43 221.395 742.378 223.762 742.378 226.635C742.378 229.508 741.43 231.889 739.533 233.776C737.664 235.636 735.215 236.565 732.187 236.565C729.186 236.565 726.723 235.636 724.799 233.776ZM727.474 221.775C726.229 223.015 725.606 224.635 725.606 226.635C725.606 228.635 726.214 230.255 727.432 231.495C728.677 232.762 730.263 233.396 732.187 233.396C734.112 233.396 735.683 232.776 736.9 231.537C738.145 230.269 738.768 228.635 738.768 226.635C738.768 224.691 738.145 223.072 736.9 221.775C735.683 220.508 734.112 219.874 732.187 219.874C730.263 219.874 728.692 220.508 727.474 221.775ZM750.675 236.143H747.278V217.127H759.379V220.296H750.675V236.143ZM777.099 221.987L766.059 236.143H762.662V217.127H766.059V231.283L777.099 217.127H780.495V236.143H777.099V221.987ZM795.034 217.127H800.979V236.143H797.582V229.804H793.888L789.217 236.143H785.099L790.618 228.959C789.458 228.706 788.482 228.085 787.689 227.1C786.897 226.086 786.5 224.874 786.5 223.466C786.5 221.522 787.208 219.987 788.623 218.86C790.039 217.705 792.176 217.127 795.034 217.127ZM790.109 223.55C790.109 224.451 790.463 225.198 791.17 225.79C791.878 226.353 792.714 226.635 793.675 226.635H797.582V220.296H794.482C793.039 220.296 791.95 220.592 791.213 221.184C790.477 221.775 790.109 222.565 790.109 223.55ZM806.22 233.861C806.22 233.269 806.446 232.749 806.899 232.297C807.38 231.846 807.961 231.621 808.64 231.621C809.235 231.621 809.758 231.846 810.211 232.297C810.663 232.749 810.89 233.269 810.89 233.861C810.89 234.537 810.678 235.115 810.254 235.594C809.829 236.045 809.291 236.27 808.64 236.27C807.961 236.27 807.38 236.045 806.899 235.594C806.446 235.115 806.22 234.537 806.22 233.861ZM831.469 209.943H821.066V206.563H845.48V209.943H835.078V236.143H831.469V209.943ZM858.426 231.41L859.487 234.072C857.648 235.734 855.255 236.565 852.312 236.565C849.198 236.565 846.721 235.664 844.881 233.861C843.013 232.058 842.079 229.649 842.079 226.635C842.079 223.79 842.957 221.424 844.711 219.536C846.438 217.648 848.844 216.705 851.929 216.705C854.477 216.705 856.586 217.521 858.256 219.155C859.954 220.761 860.804 222.846 860.804 225.41C860.804 226.226 860.732 226.987 860.591 227.691H845.9C846.041 229.466 846.707 230.861 847.896 231.875C849.113 232.889 850.669 233.396 852.566 233.396C855.058 233.396 857.011 232.734 858.426 231.41ZM851.76 219.874C850.09 219.874 848.702 220.339 847.598 221.268C846.523 222.198 845.886 223.423 845.688 224.945H857.279C857.194 223.368 856.656 222.127 855.666 221.226C854.703 220.325 853.402 219.874 851.76 219.874ZM868.808 244.594H865.412V217.127H868.808V219.367C869.488 218.578 870.422 217.944 871.611 217.465C872.8 216.958 874.031 216.705 875.305 216.705C878.022 216.705 880.159 217.606 881.716 219.409C883.33 221.184 884.137 223.494 884.137 226.339C884.137 229.241 883.216 231.677 881.377 233.65C879.565 235.594 877.173 236.565 874.201 236.565C871.908 236.565 870.111 236.129 868.808 235.255V244.594ZM874.328 219.874C872.064 219.874 870.223 220.748 868.808 222.494V231.917C870.308 232.903 872.007 233.396 873.904 233.396C875.913 233.396 877.513 232.762 878.702 231.495C879.919 230.198 880.527 228.523 880.527 226.466C880.527 224.466 879.975 222.874 878.872 221.691C877.768 220.479 876.253 219.874 874.328 219.874ZM890.025 221.142L889.133 218.437C891.029 217.282 893.152 216.705 895.502 216.705C898.077 216.705 899.945 217.338 901.107 218.606C902.267 219.874 902.848 221.831 902.848 224.48V236.143H899.621V233.692C898.12 235.523 896.082 236.439 893.506 236.439C891.751 236.439 890.336 235.918 889.26 234.875C888.184 233.805 887.647 232.368 887.647 230.565C887.647 228.706 888.311 227.24 889.643 226.17C890.973 225.071 892.714 224.522 894.865 224.522C896.875 224.522 898.459 224.931 899.621 225.748C899.621 223.606 899.324 222.071 898.729 221.142C898.135 220.212 896.988 219.747 895.29 219.747C893.563 219.747 891.808 220.212 890.025 221.142ZM894.695 233.396C896.591 233.396 898.233 232.58 899.621 230.945V228.537C898.432 227.691 897.002 227.269 895.332 227.269C894.171 227.269 893.194 227.551 892.403 228.114C891.638 228.65 891.256 229.41 891.256 230.396C891.256 231.326 891.553 232.058 892.148 232.593C892.77 233.129 893.619 233.396 894.695 233.396ZM925.731 236.143H922.334V220.296H911.932V236.143H908.535V217.127H925.731V236.143ZM946.317 221.987L935.277 236.143H931.88V217.127H935.277V231.283L946.317 217.127H949.714V236.143H946.317V221.987ZM964.252 217.127H970.197V236.143H966.8V229.804H963.106L958.435 236.143H954.317L959.837 228.959C958.676 228.706 957.7 228.085 956.907 227.1C956.115 226.086 955.718 224.874 955.718 223.466C955.718 221.522 956.426 219.987 957.841 218.86C959.257 217.705 961.394 217.127 964.252 217.127ZM959.327 223.55C959.327 224.451 959.682 225.198 960.388 225.79C961.097 226.353 961.932 226.635 962.894 226.635H966.8V220.296H963.7C962.257 220.296 961.168 220.592 960.431 221.184C959.695 221.775 959.327 222.565 959.327 223.55ZM975.438 233.861C975.438 233.269 975.664 232.749 976.118 232.297C976.598 231.846 977.179 231.621 977.858 231.621C978.453 231.621 978.976 231.846 979.429 232.297C979.881 232.749 980.109 233.269 980.109 233.861C980.109 234.537 979.896 235.115 979.472 235.594C979.047 236.045 978.509 236.27 977.858 236.27C977.179 236.27 976.598 236.045 976.118 235.594C975.664 235.115 975.438 234.537 975.438 233.861Z" fill="#729CB0"/>
<path d="M353.881 181.768H335.211V142.991H347.387C350.634 139.221 354.152 130.873 357.939 117.947C361.836 104.698 364.163 89.0797 364.92 71.0914L366.057 48.4714H436.515V142.991H451.938V181.768H433.268V161.571H353.881V181.768ZM385.376 67.0522L383.59 86.7639C382.616 100.336 380.614 112.238 377.583 122.471C374.445 133.135 371.685 139.974 369.304 142.991H416.709V67.0522H385.376ZM539.096 161.571H471.722V48.4714H537.473V67.0522H491.691V95.1656H532.602V113.746H491.691V142.991H539.096V161.571ZM587.832 67.0522H550.979V48.4714H644.653V67.0522H607.8V161.571H587.832V67.0522ZM648.298 105.021C648.298 88.5412 653.818 74.6998 664.858 63.4976C676.115 52.2953 690.293 46.6942 707.393 46.6942C724.494 46.6942 738.618 52.0798 749.766 62.8513C761.022 73.7304 766.65 87.7871 766.65 105.021C766.65 121.933 761.022 135.882 749.766 146.868C738.51 157.855 724.386 163.349 707.393 163.349C690.293 163.349 676.169 157.963 665.02 147.192C653.873 136.42 648.298 122.363 648.298 105.021ZM669.404 105.021C669.404 116.439 673.03 125.918 680.281 133.458C687.533 140.998 696.571 144.768 707.393 144.768C719.082 144.768 728.336 140.998 735.154 133.458C742.081 125.918 745.544 116.439 745.544 105.021C745.544 93.4961 741.865 83.9633 734.505 76.4233C727.146 68.991 718.108 65.2749 707.393 65.2749C696.462 65.2749 687.37 68.991 680.119 76.4233C672.975 83.8556 669.404 93.3883 669.404 105.021ZM809.727 161.571H789.758V48.4714H809.727V102.113L854.534 48.4714H878.562L831.806 101.144L881.484 161.571H856.158L809.727 103.244V161.571ZM971.394 135.72L979.025 150.585C975.453 154.354 970.312 157.424 963.602 159.794C956.999 162.164 950.018 163.349 942.659 163.349C925.341 163.349 911.217 158.017 900.286 147.353C889.463 136.689 884.052 122.579 884.052 105.021C884.052 88.218 889.192 74.2691 899.475 63.1744C909.648 52.1876 923.88 46.6942 942.172 46.6942C956.674 46.6942 968.201 50.518 976.752 58.1657L967.823 72.8687C960.137 67.8062 951.588 65.2749 942.172 65.2749C931.348 65.2749 922.473 68.8833 915.547 76.1002C908.62 83.3171 905.157 92.9574 905.157 105.021C905.157 116.87 908.782 126.457 916.034 133.781C923.393 141.105 932.863 144.768 944.445 144.768C954.402 144.768 963.384 141.752 971.394 135.72Z" fill="#3F3F3F"/>
</g>
</g>
<defs>
<linearGradient id="paint0_linear_52_2390" x1="104.727" y1="135.159" x2="96.57" y2="261.026" gradientUnits="userSpaceOnUse">
<stop stop-color="#01D4A1"/>
<stop offset="0.278753" stop-color="#01C0A8"/>
<stop offset="0.575881" stop-color="#01B8AB"/>
<stop offset="0.808013" stop-color="#018BF2"/>
<stop offset="1" stop-color="#0088F5"/>
</linearGradient>
<clipPath id="clip0_52_2390">
<rect width="986" height="261" fill="white"/>
</clipPath>
</defs>
</svg>
